<svg xmlns="http://www.w3.org/2000/svg" viewBox="0 0 32 32" role="img" aria-label="Riviera Hearth">
  <rect width="32" height="32" rx="8" fill="#9a3412"/>
  <path d="M16 5c1.6 3.2 1 5.4-.6 7.2-1.4 1.6-3 3-3 5.6a6.6 6.6 0 0 0 13.2 0c0-2.2-1-3.8-2-5.2-.4 1-1 1.6-1.8 2 .8-2.6-.4-5.4-2.4-7.4-1-1-2.4-1.8-3.4-2.2Z" fill="#fde68a"/>
  <path d="M16 13c1 1.6 1 3 0 4.2-.9 1-1.8 1.8-1.8 3.2a3.4 3.4 0 0 0 6.8 0c0-1.4-.8-2.4-1.6-3.4.2 1-.2 1.6-.6 2 .2-1.6-.6-3-1.6-4.2-.4-.6-.8-1.2-1.2-1.8Z" fill="#ea580c"/>
</svg>
